<?xml version="1.0" encoding="UTF-8"?>
<svg version="1.1" xmlns="http://www.w3.org/2000/svg" width="769" height="168">
<path d="M0 0 C8.58 0 17.16 0 26 0 C26 11.22 26 22.44 26 34 C34.25 34 42.5 34 51 34 C51 42.58 51 51.16 51 60 C42.75 60 34.5 60 26 60 C26.08879447 67.40031789 26.17942992 74.8002309 26.28729248 82.20023346 C26.33702053 85.64704029 26.38350808 89.09381788 26.421875 92.54077148 C26.46615636 96.50521417 26.52570702 100.4693601 26.5859375 104.43359375 C26.59748871 105.65582138 26.60903992 106.87804901 26.62094116 108.13731384 C26.81141501 119.26227059 27.57406153 127.44487252 35.625 135.6875 C44.71527019 142.63362784 57.17493196 141.61883563 68 142 C68 150.58 68 159.16 68 168 C47.74100833 168.27377016 31.01231449 167.85496673 15 154 C3.83256753 142.71861414 -0.20776699 128.55458801 -0.24884033 113.01351929 C-0.24164978 111.90868195 -0.23445923 110.8038446 -0.22705078 109.66552734 C-0.22734283 108.47413147 -0.22763489 107.2827356 -0.22793579 106.05523682 C-0.22678939 102.820324 -0.21682813 99.58558909 -0.20278788 96.35071135 C-0.19020052 92.95815029 -0.18910376 89.56558495 -0.18673706 86.17300415 C-0.18054563 79.763014 -0.16416681 73.35309289 -0.14403808 66.943133 C-0.12160588 59.63954316 -0.11066733 52.33594985 -0.10064721 45.03233409 C-0.07979823 30.0215114 -0.04315159 15.01077826 0 0 Z " fill="#FEFEFE" transform="translate(74,0)"/>
<path d="M0 0 C16.83 0 33.66 0 51 0 C51.12032643 21.97962752 51.12032643 21.97962752 51.14648438 31.40625 C51.16436239 37.81843589 51.18542777 44.2304923 51.22631836 50.64257812 C51.25910523 55.81676394 51.27689353 60.99081072 51.28463173 66.16509247 C51.29014072 68.13128597 51.30089771 70.09747255 51.31719017 72.06360626 C51.46276082 90.37211524 49.65258455 105.82107391 36.515625 119.67578125 C24.05505228 131.18826692 9.9139557 134.2163468 -6.5 134.0625 C-11.2025 134.0315625 -11.2025 134.0315625 -16 134 C-16 125.42 -16 116.84 -16 108 C-13.07125 107.896875 -10.1425 107.79375 -7.125 107.6875 C6.62939868 107.09647298 6.62939868 107.09647298 18 100 C22.43997914 94.16459885 24.22939692 88.93258508 24.31884766 81.62744141 C24.33871735 80.38660797 24.35858704 79.14577454 24.37905884 77.86734009 C24.39093233 76.52874937 24.40259536 75.19015676 24.4140625 73.8515625 C24.43279091 72.47007105 24.45236556 71.08859084 24.4727478 69.7071228 C24.52389861 66.0872055 24.56361497 62.46725118 24.60089111 58.84716797 C24.64103827 55.14671805 24.69208152 51.44641985 24.7421875 47.74609375 C24.8387447 40.49749243 24.92220519 33.24883142 25 26 C16.75 26 8.5 26 0 26 C0 17.42 0 8.84 0 0 Z " fill="#FEFEFE" transform="translate(16,34)"/>
<path d="M0 0 C1.9038336 1.43733133 3.49671336 2.93421336 5.1875 4.625 C5.5175 2.975 5.8475 1.325 6.1875 -0.375 C12.7875 -0.375 19.3875 -0.375 26.1875 -0.375 C26.27831214 8.41421833 26.35150825 17.20311882 26.39474869 25.99270248 C26.41551478 30.07522942 26.44362795 34.15741534 26.48925781 38.23974609 C26.53311226 42.18850242 26.55671937 46.13693331 26.56700897 50.08591461 C26.57433008 51.58323531 26.58862391 53.08054069 26.61042023 54.57772064 C26.76767452 65.83997457 26.18426636 77.46082115 18 86.0625 C10.28363108 93.94331613 1.68554315 97.55745264 -9.30859375 97.92578125 C-11.2890136 97.94023687 -13.2695379 97.94395102 -15.25 97.9375 C-16.23548828 97.95361328 -17.22097656 97.96972656 -18.23632812 97.98632812 C-24.72825764 97.99063027 -29.76477376 96.99530842 -35.8125 94.625 C-35.8125 88.685 -35.8125 82.745 -35.8125 76.625 C-29.8125 78.625 -29.8125 78.625 -27.328125 79.69921875 C-20.16139097 82.3366659 -11.76186706 82.53050956 -4.6796875 79.625 C0.01238893 77.11208877 2.21677241 74.07699501 4 69.1875 C5.07132103 65.58834283 5.47785887 62.3996653 5.1875 58.625 C4.6925 59.3675 4.1975 60.11 3.6875 60.875 C-0.49066851 65.47098536 -4.10410793 67.29890597 -10.31640625 68.046875 C-19.61712246 68.38474158 -26.40734535 67.13906625 -33.61328125 61.12109375 C-41.68772859 52.80621621 -42.393136 42.3477119 -42.28515625 31.33666992 C-41.89193606 19.41718304 -38.05296185 10.54543816 -29.375 2.3125 C-20.92332306 -3.25323847 -9.13929484 -5.65765871 0 0 Z M-15.8125 16.625 C-20.71306804 23.23083327 -21.55662702 31.46619634 -20.40625 39.44140625 C-19.38838664 43.50680097 -18.16045421 46.7891881 -15.125 49.75 C-10.75729697 52.22228473 -8.77752716 52.25547964 -3.8125 51.625 C0.76805431 49.75113687 2.76469125 46.86491532 5.1875 42.625 C7.4656527 35.7905419 7.52794607 26.49398 4.5 19.9375 C2.54635973 16.75858012 0.77061258 14.92795003 -2.8125 13.625 C-7.83338169 12.91064691 -11.89412664 13.14200145 -15.8125 16.625 Z " fill="#FEFEFE" transform="translate(347.8125,48.375)"/>
<path d="M0 0 C6.6 0 13.2 0 20 0 C20.33 12.54 20.66 25.08 21 38 C23.64 35.69 26.28 33.38 29 31 C35.23353654 27.57581149 43.75889464 27.90021026 50.515625 29.65234375 C56.3822796 32.26098978 59.52103564 36.63659314 62.05078125 42.38964844 C63.40151847 47.52717468 63.2456506 52.45315079 63.1953125 57.7421875 C63.1924826 58.86569611 63.18965271 59.98920471 63.18673706 61.14675903 C63.17557303 64.72294927 63.15047501 68.2988859 63.125 71.875 C63.11496533 74.30468387 63.10584033 76.73437169 63.09765625 79.1640625 C63.075646 85.1094722 63.0411418 91.05469315 63 97 C56.4 97 49.8 97 43 97 C42.95101562 94.12152344 42.90203125 91.24304688 42.8515625 88.27734375 C42.79747474 85.47398913 42.74019792 82.67071643 42.68261719 79.86743164 C42.64445341 77.92673911 42.60957905 75.98597889 42.578125 74.04516602 C42.53219974 71.24731332 42.47425172 68.44992162 42.4140625 65.65234375 C42.40251129 64.7916478 42.39096008 63.93095184 42.37905884 63.04417419 C42.18721193 54.49030618 42.18721193 54.49030618 38.375 47.0625 C34.89697875 45.50654312 31.68965517 45.22245835 28 46 C23.76429866 49.13073577 22.31325004 51.99471513 21 57 C20.68664048 60.1110231 20.62871006 63.21078118 20.5859375 66.3359375 C20.56657135 67.21528961 20.5472052 68.09464172 20.5272522 69.00064087 C20.46777185 71.79199718 20.4211979 74.58339543 20.375 77.375 C20.33679115 79.27475694 20.29773774 81.1744971 20.2578125 83.07421875 C20.16051636 87.71605538 20.08069825 92.35772678 20 97 C13.4 97 6.8 97 0 97 C0 64.99 0 32.98 0 0 Z " fill="#E5E5E5" transform="translate(706,17)"/>
<path d="M0 0 C1.18613892 0.00785522 1.18613892 0.00785522 2.39624023 0.01586914 C3.16524658 0.0183667 3.93425293 0.02086426 4.7265625 0.0234375 C5.70939209 0.0325415 6.69222168 0.04164551 7.70483398 0.05102539 C12.37639648 0.08196289 12.37639648 0.08196289 17.14233398 0.11352539 C17.14233398 8.36352539 17.14233398 16.61352539 17.14233398 25.11352539 C23.41233398 25.11352539 29.68233398 25.11352539 36.14233398 25.11352539 C36.14233398 31.71352539 36.14233398 38.31352539 36.14233398 45.11352539 C29.87233398 45.11352539 23.60233398 45.11352539 17.14233398 45.11352539 C17.1935822 51.34018348 17.25680145 57.56442836 17.34985352 63.7902832 C17.37793495 65.9044604 17.39921275 68.01874009 17.41333008 70.13305664 C17.43493796 73.1869709 17.48167882 76.23966944 17.53295898 79.29321289 C17.53418762 80.2259201 17.53541626 81.15862732 17.53668213 82.11959839 C17.69005054 89.12104633 18.86428813 96.47168412 23.71221924 101.8576355 C30.0038922 107.19156861 40.53451014 105.94570575 48.14233398 106.11352539 C48.14233398 112.71352539 48.14233398 119.31352539 48.14233398 126.11352539 C32.44355582 126.44518972 20.13299083 126.65006147 8.16577148 115.22680664 C-0.82935157 105.48527976 -3.19148479 94.73828786 -3.10058594 81.73242188 C-3.10248428 80.85474655 -3.10438263 79.97707123 -3.1063385 79.07279968 C-3.11000421 76.20997814 -3.09940887 73.34741759 -3.08813477 70.48461914 C-3.08694124 68.48348521 -3.08649017 66.4823507 -3.08674622 64.48121643 C-3.08518904 60.30807947 -3.07695297 56.13502923 -3.06347656 51.96191406 C-3.04638836 46.60164054 -3.04266545 41.24146118 -3.04342175 35.8811636 C-3.04315067 31.75923253 -3.03768123 27.63732222 -3.0304203 23.51539803 C-3.02723123 21.53734557 -3.02526567 19.55929077 -3.0245266 17.58123589 C-3.02237116 14.83080855 -3.01364729 12.08048364 -3.00292969 9.33007812 C-3.00338287 8.50781738 -3.00383606 7.68555664 -3.00430298 6.83837891 C-2.96615115 0.18126696 -2.96615115 0.18126696 0 0 Z " fill="#E5E5E5" transform="translate(521.857666015625,19.886474609375)"/>
<path d="M0 0 C3.77529955 2.81050077 6.25900056 5.68311849 8.4609375 9.83203125 C8.79738281 10.45207031 9.13382813 11.07210937 9.48046875 11.7109375 C12.96562103 19.84295948 11.4609375 27.82766922 11.4609375 36.83203125 C-2.3990625 37.16203125 -16.2590625 37.49203125 -30.5390625 37.83203125 C-28.31831166 45.25323422 -28.31831166 45.25323422 -22.9453125 49.20703125 C-12.98723178 51.79354572 -3.7340647 49.86271714 5.4609375 45.83203125 C5.4609375 51.11203125 5.4609375 56.39203125 5.4609375 61.83203125 C-6.2285345 66.8195393 -21.10526885 68.65541316 -33.3515625 64.26953125 C-43.09020683 59.27847603 -48.12533002 52.07322869 -51.5390625 41.83203125 C-52.81541729 28.68880815 -52.0684213 16.79579371 -43.8515625 5.95703125 C-32.59982955 -5.96688315 -14.00927468 -8.19446615 0 0 Z M-26.5390625 12.83203125 C-29.58724435 16.72693028 -30.54798371 18.87663729 -31.5390625 23.83203125 C-23.6190625 23.83203125 -15.6990625 23.83203125 -7.5390625 23.83203125 C-8.47588712 14.34050643 -8.47588712 14.34050643 -12.5390625 10.83203125 C-17.75782553 9.28790286 -22.31797534 9.09335405 -26.5390625 12.83203125 Z " fill="#E5E5E5" transform="translate(619.5390625,50.16796875)"/>
<path d="M0 0 C5.39229959 4.56093862 8.55110811 10.55182558 9.26325989 17.60870361 C9.345293 20.57691976 9.33757875 23.53099024 9.29296875 26.5 C9.28872391 27.57628662 9.28447906 28.65257324 9.28010559 29.76147461 C9.26341025 33.1745787 9.22577443 36.58707655 9.1875 40 C9.17244137 42.32421018 9.15875503 44.64842968 9.14648438 46.97265625 C9.11353659 52.64866851 9.06181718 58.32423172 9 64 C2.73 64 -3.54 64 -10 64 C-10.33 62.02 -10.66 60.04 -11 58 C-11.44730469 58.40992188 -11.89460938 58.81984375 -12.35546875 59.2421875 C-12.96003906 59.78101563 -13.56460938 60.31984375 -14.1875 60.875 C-14.77917969 61.40867187 -15.37085938 61.94234375 -15.98046875 62.4921875 C-22.23360472 67.16087315 -29.52348451 66.80347169 -37 66 C-42.40256244 64.1963495 -46.38492125 60.44774237 -49.15234375 55.50390625 C-51.41160639 48.8302318 -51.25371648 40.81192459 -48.3125 34.375 C-44.04068299 27.45171036 -37.57036339 25.10184536 -30 23 C-23.32943762 21.71775367 -16.79827446 20.87658201 -10 21 C-11.44933518 15.49189362 -11.44933518 15.49189362 -15.1875 11.5 C-25.56922116 9.65436068 -33.51080831 12.93320356 -43 17 C-43 11.72 -43 6.44 -43 1 C-30.20476853 -4.28869567 -12.53261347 -8.37979481 0 0 Z M-28.1875 36.75 C-30.49384689 39.61305131 -31 41.32637024 -31 45 C-29.26655125 48.72843964 -29.26655125 48.72843964 -26 51 C-20.96986386 51.50301361 -18.96514216 51.6076821 -14.625 48.875 C-10.07603468 43.89279988 -9.73619221 39.59519467 -10 33 C-16.2482553 33 -22.67802298 33.72518908 -28.1875 36.75 Z " fill="#FEFEFE" transform="translate(436,50)"/>
<path d="M0 0 C5.39229959 4.56093862 8.55110811 10.55182558 9.26325989 17.60870361 C9.345293 20.57691976 9.33757875 23.53099024 9.29296875 26.5 C9.28872391 27.57628662 9.28447906 28.65257324 9.28010559 29.76147461 C9.26341025 33.1745787 9.22577443 36.58707655 9.1875 40 C9.17244137 42.32421018 9.15875503 44.64842968 9.14648438 46.97265625 C9.11353659 52.64866851 9.06181718 58.32423172 9 64 C2.73 64 -3.54 64 -10 64 C-10.33 62.02 -10.66 60.04 -11 58 C-11.44730469 58.40992188 -11.89460938 58.81984375 -12.35546875 59.2421875 C-12.96003906 59.78101563 -13.56460938 60.31984375 -14.1875 60.875 C-14.77917969 61.40867187 -15.37085938 61.94234375 -15.98046875 62.4921875 C-22.23360472 67.16087315 -29.52348451 66.80347169 -37 66 C-42.40256244 64.1963495 -46.38492125 60.44774237 -49.15234375 55.50390625 C-51.41160639 48.8302318 -51.25371648 40.81192459 -48.3125 34.375 C-44.04068299 27.45171036 -37.57036339 25.10184536 -30 23 C-23.32943762 21.71775367 -16.79827446 20.87658201 -10 21 C-11.44933518 15.49189362 -11.44933518 15.49189362 -15.1875 11.5 C-25.56922116 9.65436068 -33.51080831 12.93320356 -43 17 C-43 11.72 -43 6.44 -43 1 C-30.20476853 -4.28869567 -12.53261347 -8.37979481 0 0 Z M-28.1875 36.75 C-30.49384689 39.61305131 -31 41.32637024 -31 45 C-29.26655125 48.72843964 -29.26655125 48.72843964 -26 51 C-20.96986386 51.50301361 -18.96514216 51.6076821 -14.625 48.875 C-10.07603468 43.89279988 -9.73619221 39.59519467 -10 33 C-16.2482553 33 -22.67802298 33.72518908 -28.1875 36.75 Z " fill="#FEFEFE" transform="translate(284,50)"/>
<path d="M0 0 C12.87 0 25.74 0 39 0 C39.08021762 15.82069702 39.08021762 15.82069702 39.09765625 22.6171875 C39.1095649 27.23637546 39.123581 31.85548337 39.15087891 36.47460938 C39.17277165 40.20288083 39.18460289 43.9310663 39.18975449 47.65939713 C39.19342099 49.07459998 39.20057986 50.48979867 39.21146011 51.90496445 C39.31477215 65.91250826 38.27923475 78.48752083 28.4375 89.25 C21.64567657 95.62784562 12.6295405 100.15788167 3.234375 100.09765625 C2.03119629 100.09390991 2.03119629 100.09390991 0.80371094 100.09008789 C-0.20401367 100.08098389 -1.21173828 100.07187988 -2.25 100.0625 C-5.4675 100.041875 -8.685 100.02125 -12 100 C-12 93.4 -12 86.8 -12 80 C-3.4375 79.75 -3.4375 79.75 -0.78295898 79.70214844 C4.88930743 79.45873102 8.33594455 78.2701998 13 75 C16.49003963 70.49968573 18.09917212 67.0012571 18.20532227 61.3449707 C18.22526749 60.40422195 18.24521271 59.46347321 18.26576233 58.49421692 C18.28247482 57.48163315 18.29918732 56.46904938 18.31640625 55.42578125 C18.33718735 54.38681198 18.35796844 53.34784271 18.37937927 52.27738953 C18.44480656 48.95582747 18.50372821 45.63418584 18.5625 42.3125 C18.60569169 40.0618407 18.64930619 37.81118948 18.69335938 35.56054688 C18.80048103 30.04044631 18.90176789 24.52026563 19 19 C12.73 19 6.46 19 0 19 C0 12.73 0 6.46 0 0 Z " fill="#FEFEFE" transform="translate(182,46)"/>
<path d="M0 0 C0 6.6 0 13.2 0 20 C4.95 20 9.9 20 15 20 C15 24.95 15 29.9 15 35 C10.05 35 5.1 35 0 35 C0.09731446 39.0206237 0.20027562 43.04050667 0.31738281 47.06054688 C0.35549202 48.42601921 0.39037536 49.79158577 0.421875 51.15722656 C0.46791878 53.12847607 0.52681049 55.09941204 0.5859375 57.0703125 C0.63306885 58.84559326 0.63306885 58.84559326 0.68115234 60.65673828 C1.0070572 64.07399788 1.67755052 66.83634364 3 70 C5.52475462 71.26237731 7.31200466 71.09856404 10.125 71.0625 C11.73375 71.041875 13.3425 71.02125 15 71 C15 76.28 15 81.56 15 87 C7.36325352 88.90918662 -3.46220239 89.77146358 -10.8125 86.3125 C-15.53265735 82.88807212 -18.25705014 79.55734658 -20 74 C-20.26597236 70.99074641 -20.23298232 67.99940126 -20.1953125 64.98046875 C-20.1924826 64.12189774 -20.18965271 63.26332672 -20.18673706 62.3787384 C-20.1755807 59.64818125 -20.15048459 56.9179573 -20.125 54.1875 C-20.11496432 52.33138496 -20.1058395 50.47526476 -20.09765625 48.61914062 C-20.07565626 44.07929954 -20.04115781 39.53970619 -20 35 C-23.63 35 -27.26 35 -31 35 C-31 30.05 -31 25.1 -31 20 C-27.37 20 -23.74 20 -20 20 C-20 15.05 -20 10.1 -20 5 C-17.23058394 4.16169027 -14.45964931 3.32917966 -11.6875 2.5 C-10.50897461 2.14228516 -10.50897461 2.14228516 -9.30664062 1.77734375 C-8.54931641 1.55175781 -7.79199219 1.32617188 -7.01171875 1.09375 C-6.31522217 0.88427734 -5.61872559 0.67480469 -4.90112305 0.45898438 C-3 0 -3 0 0 0 Z " fill="#FEFEFE" transform="translate(486,28)"/>
<path d="M0 0 C0.88558594 -0.01224609 1.77117188 -0.02449219 2.68359375 -0.03710938 C3.54855469 -0.03904297 4.41351562 -0.04097656 5.3046875 -0.04296875 C6.08569824 -0.04707764 6.86670898 -0.05118652 7.67138672 -0.05541992 C10.125 0.1875 10.125 0.1875 16.125 2.1875 C16.125 8.1275 16.125 14.0675 16.125 20.1875 C13.485 19.1975 10.845 18.2075 8.125 17.1875 C1.97219046 16.36389557 -3.6748948 16.50937681 -8.875 20.1875 C-13.3726509 24.56021615 -14.82374309 29.55395485 -14.91015625 35.6796875 C-14.54739144 41.50162037 -13.4034845 45.51464214 -9.875 50.1875 C-4.76276279 54.05285009 0.97911798 53.84780137 7.125 53.1875 C10.26924752 52.39917281 13.09808133 51.37841882 16.125 50.1875 C16.125 55.7975 16.125 61.4075 16.125 67.1875 C9.72646233 69.60614724 4.44348535 70.66260827 -2.375 70.5625 C-3.16519531 70.57410156 -3.95539062 70.58570312 -4.76953125 70.59765625 C-14.9255106 70.54779056 -21.41907298 67.45121136 -28.70703125 60.45703125 C-36.12841023 52.68798407 -37.30270853 44.41675981 -37.23413086 34.03515625 C-36.97403515 23.36143759 -33.8343117 16.0985034 -26.38671875 8.35546875 C-18.32802184 1.39967282 -10.24752335 0.0073936 0 0 Z " fill="#E5E5E5" transform="translate(675.875,45.8125)"/>
<path d="M0 0 C8.58 0 17.16 0 26 0 C26 8.58 26 17.16 26 26 C17.42 26 8.84 26 0 26 C0 17.42 0 8.84 0 0 Z " fill="#C62626" transform="translate(41,0)"/>
<path d="M0 0 C6.6 0 13.2 0 20 0 C20.125 13.375 20.125 13.375 19 19 C12.73 19 6.46 19 0 19 C0 12.73 0 6.46 0 0 Z " fill="#C52626" transform="translate(201,21)"/>
</svg>
