<?xml version="1.0" encoding="UTF-8"?>
<svg version="1.1" xmlns="http://www.w3.org/2000/svg" width="770" height="168">
<path d="M0 0 C8.58 0 17.16 0 26 0 C26 10.89 26 21.78 26 33 C34.25 33 42.5 33 51 33 C51 41.58 51 50.16 51 59 C42.75 59 34.5 59 26 59 C26.04046859 66.92870451 26.09775658 74.85675727 26.18390274 82.785079 C26.22325618 86.46733202 26.25550341 90.14935026 26.27099609 93.83178711 C26.28624368 97.3917766 26.32082954 100.95112009 26.36830902 104.51082039 C26.3901637 106.51626348 26.39246675 108.52188927 26.39434814 110.52745056 C26.54517093 120.01653775 28.0673984 128.0673984 35 135 C40.28117525 138.64858712 44.86894907 140.05862002 51.203125 140.31640625 C52.08645508 140.35451416 52.96978516 140.39262207 53.87988281 140.43188477 C54.99202148 140.47498779 56.10416016 140.51809082 57.25 140.5625 C60.7975 140.706875 64.345 140.85125 68 141 C67.67 149.58 67.34 158.16 67 167 C40.91039531 167.45505124 40.91039531 167.45505124 32 164 C30.72189453 163.50693359 30.72189453 163.50693359 29.41796875 163.00390625 C18.066957 157.96482423 8.72782717 148.44443777 3.71875 137.09765625 C1.4105522 130.9562014 -0.12693172 125.2816071 -0.12025452 118.69120789 C-0.12162918 117.64097946 -0.12300385 116.59075104 -0.12442017 115.50869751 C-0.12082489 114.36718231 -0.11722961 113.22566711 -0.11352539 112.04956055 C-0.11367142 110.83938766 -0.11381744 109.62921478 -0.1139679 108.38237 C-0.11339145 105.07282968 -0.10838317 101.76335207 -0.10139394 98.45382285 C-0.09513404 94.99182556 -0.09455451 91.52982739 -0.09336853 88.06782532 C-0.09026299 81.51602985 -0.08206007 74.96425112 -0.07201904 68.41246301 C-0.06083378 60.95179 -0.05534137 53.49111618 -0.05032361 46.03043687 C-0.03987681 30.68694659 -0.02154099 15.34347933 0 0 Z " fill="#1E2126" transform="translate(75,1)"/>
<path d="M0 0 C16.83 0 33.66 0 51 0 C51.08021762 21.23092974 51.08021762 21.23092974 51.09765625 30.33984375 C51.10957261 36.53470319 51.12361008 42.72950304 51.15087891 48.92431641 C51.17274457 53.92343038 51.18459735 58.92248035 51.18975449 63.92163849 C51.19342575 65.8208339 51.20059422 67.72002615 51.21146011 69.61919403 C51.31949083 89.29886614 49.86358356 105.99707439 35.43359375 120.81640625 C19.63588571 134.99123577 3.14888829 134.43330943 -17 134 C-17 125.42 -17 116.84 -17 108 C-6.5 107.6875 -6.5 107.6875 -3.24023438 107.61206055 C4.81585717 107.3066128 12.13776377 106.02067504 18 100 C22.39805137 93.35931621 24.08785036 87.89586845 24.20532227 79.92456055 C24.22526749 78.72369308 24.24521271 77.52282562 24.26576233 76.28556824 C24.28247482 74.99894791 24.29918732 73.71232758 24.31640625 72.38671875 C24.33699635 71.04864388 24.35799335 69.71057521 24.37937927 68.37251282 C24.43438775 64.86271206 24.48388994 61.35285468 24.53222656 57.84295654 C24.58259728 54.25658165 24.6382018 50.67028827 24.69335938 47.08398438 C24.80068105 40.05605903 24.90169885 33.02805815 25 26 C16.75 26 8.5 26 0 26 C0 17.42 0 8.84 0 0 Z " fill="#1E2126" transform="translate(17,34)"/>
<path d="M0 0 C1.9038336 1.43733133 3.49671336 2.93421336 5.1875 4.625 C5.5175 2.975 5.8475 1.325 6.1875 -0.375 C12.7875 -0.375 19.3875 -0.375 26.1875 -0.375 C26.27831214 8.41421833 26.35150825 17.20311882 26.39474869 25.99270248 C26.41551478 30.07522942 26.44362795 34.15741534 26.48925781 38.23974609 C26.53311226 42.18850242 26.55671937 46.13693331 26.56700897 50.08591461 C26.57433008 51.58323531 26.58862391 53.08054069 26.61042023 54.57772064 C26.76767452 65.83997457 26.18426636 77.46082115 18 86.0625 C10.28363108 93.94331613 1.68554315 97.55745264 -9.30859375 97.92578125 C-11.2890136 97.94023687 -13.2695379 97.94395102 -15.25 97.9375 C-16.23548828 97.95361328 -17.22097656 97.96972656 -18.23632812 97.98632812 C-24.72825764 97.99063027 -29.76477376 96.99530842 -35.8125 94.625 C-35.8125 88.685 -35.8125 82.745 -35.8125 76.625 C-29.8125 78.625 -29.8125 78.625 -27.328125 79.69921875 C-20.16139097 82.3366659 -11.76186706 82.53050956 -4.6796875 79.625 C0.01238893 77.11208877 2.21677241 74.07699501 4 69.1875 C5.07132103 65.58834283 5.47785887 62.3996653 5.1875 58.625 C4.6925 59.3675 4.1975 60.11 3.6875 60.875 C-0.49066851 65.47098536 -4.10410793 67.29890597 -10.31640625 68.046875 C-19.61712246 68.38474158 -26.40734535 67.13906625 -33.61328125 61.12109375 C-41.68772859 52.80621621 -42.393136 42.3477119 -42.28515625 31.33666992 C-41.89193606 19.41718304 -38.05296185 10.54543816 -29.375 2.3125 C-20.92332306 -3.25323847 -9.13929484 -5.65765871 0 0 Z M-15.8125 16.625 C-20.71306804 23.23083327 -21.55662702 31.46619634 -20.40625 39.44140625 C-19.38838664 43.50680097 -18.16045421 46.7891881 -15.125 49.75 C-10.75729697 52.22228473 -8.77752716 52.25547964 -3.8125 51.625 C0.76805431 49.75113687 2.76469125 46.86491532 5.1875 42.625 C7.4656527 35.7905419 7.52794607 26.49398 4.5 19.9375 C2.54635973 16.75858012 0.77061258 14.92795003 -2.8125 13.625 C-7.83338169 12.91064691 -11.89412664 13.14200145 -15.8125 16.625 Z " fill="#1E2126" transform="translate(348.8125,48.375)"/>
<path d="M0 0 C6.6 0 13.2 0 20 0 C20.33 12.54 20.66 25.08 21 38 C23.64 35.69 26.28 33.38 29 31 C35.23353654 27.57581149 43.75889464 27.90021026 50.515625 29.65234375 C56.3822796 32.26098978 59.52103564 36.63659314 62.05078125 42.38964844 C63.40151847 47.52717468 63.2456506 52.45315079 63.1953125 57.7421875 C63.1924826 58.86569611 63.18965271 59.98920471 63.18673706 61.14675903 C63.17557303 64.72294927 63.15047501 68.2988859 63.125 71.875 C63.11496533 74.30468387 63.10584033 76.73437169 63.09765625 79.1640625 C63.075646 85.1094722 63.0411418 91.05469315 63 97 C56.4 97 49.8 97 43 97 C42.95101562 94.12152344 42.90203125 91.24304688 42.8515625 88.27734375 C42.79747474 85.47398913 42.74019792 82.67071643 42.68261719 79.86743164 C42.64445341 77.92673911 42.60957905 75.98597889 42.578125 74.04516602 C42.53219974 71.24731332 42.47425172 68.44992162 42.4140625 65.65234375 C42.40251129 64.7916478 42.39096008 63.93095184 42.37905884 63.04417419 C42.18721193 54.49030618 42.18721193 54.49030618 38.375 47.0625 C34.89697875 45.50654312 31.68965517 45.22245835 28 46 C23.76429866 49.13073577 22.31325004 51.99471513 21 57 C20.68664048 60.1110231 20.62871006 63.21078118 20.5859375 66.3359375 C20.56657135 67.21528961 20.5472052 68.09464172 20.5272522 69.00064087 C20.46777185 71.79199718 20.4211979 74.58339543 20.375 77.375 C20.33679115 79.27475694 20.29773774 81.1744971 20.2578125 83.07421875 C20.16051636 87.71605538 20.08069825 92.35772678 20 97 C13.4 97 6.8 97 0 97 C0 64.99 0 32.98 0 0 Z " fill="#808080" transform="translate(707,17)"/>
<path d="M0 0 C6.6 0 13.2 0 20 0 C20 8.25 20 16.5 20 25 C22.02125 24.979375 24.0425 24.95875 26.125 24.9375 C30.68426546 24.89097688 34.43361089 25.23893515 39 26 C39 32.27 39 38.54 39 45 C32.73 45 26.46 45 20 45 C20.04428131 51.54752666 20.11425177 58.09410082 20.20751953 64.64111328 C20.23565772 66.86597086 20.25690765 69.09092707 20.27099609 71.31591797 C20.29252432 74.52362303 20.33922678 77.73015103 20.390625 80.9375 C20.39185364 81.92427734 20.39308228 82.91105469 20.39434814 83.92773438 C20.55053879 91.37638495 22.01429066 97.01429066 27.375 102.375 C32.6130799 105.61762089 37.82027873 106.34241956 43.875 106.625 C47.401875 106.810625 47.401875 106.810625 51 107 C51 113.27 51 119.54 51 126 C41.80245315 129.06584895 29.21197232 126.81476163 20.625 122.75 C9.80684015 116.710736 4.12206657 108.56794622 0.64298058 96.72514725 C-0.34549922 92.53566922 -0.39542289 88.52264077 -0.34057617 84.23583984 C-0.34101425 83.31754395 -0.34145233 82.39924805 -0.34190369 81.453125 C-0.33983448 78.45550333 -0.3165926 75.45845994 -0.29296875 72.4609375 C-0.28736614 70.36772975 -0.28309919 68.27451804 -0.28010559 66.18130493 C-0.26870921 60.70026588 -0.23928724 55.21946933 -0.20599365 49.73852539 C-0.17518003 44.1343107 -0.16157621 38.53005643 -0.14648438 32.92578125 C-0.11441218 21.95039773 -0.06168718 10.97525707 0 0 Z " fill="#7F7F7F" transform="translate(520,20)"/>
<path d="M0 0 C3.77529955 2.81050077 6.25900056 5.68311849 8.4609375 9.83203125 C8.79738281 10.45207031 9.13382813 11.07210937 9.48046875 11.7109375 C12.96562103 19.84295948 11.4609375 27.82766922 11.4609375 36.83203125 C-2.3990625 37.16203125 -16.2590625 37.49203125 -30.5390625 37.83203125 C-28.31831166 45.25323422 -28.31831166 45.25323422 -22.9453125 49.20703125 C-12.98723178 51.79354572 -3.7340647 49.86271714 5.4609375 45.83203125 C5.4609375 51.11203125 5.4609375 56.39203125 5.4609375 61.83203125 C-6.2285345 66.8195393 -21.10526885 68.65541316 -33.3515625 64.26953125 C-43.09020683 59.27847603 -48.12533002 52.07322869 -51.5390625 41.83203125 C-52.81541729 28.68880815 -52.0684213 16.79579371 -43.8515625 5.95703125 C-32.59982955 -5.96688315 -14.00927468 -8.19446615 0 0 Z M-26.5390625 12.83203125 C-29.58724435 16.72693028 -30.54798371 18.87663729 -31.5390625 23.83203125 C-23.6190625 23.83203125 -15.6990625 23.83203125 -7.5390625 23.83203125 C-8.47588712 14.34050643 -8.47588712 14.34050643 -12.5390625 10.83203125 C-17.75782553 9.28790286 -22.31797534 9.09335405 -26.5390625 12.83203125 Z " fill="#808080" transform="translate(620.5390625,50.16796875)"/>
<path d="M0 0 C5.39229959 4.56093862 8.55110811 10.55182558 9.26325989 17.60870361 C9.345293 20.57691976 9.33757875 23.53099024 9.29296875 26.5 C9.28872391 27.57628662 9.28447906 28.65257324 9.28010559 29.76147461 C9.26341025 33.1745787 9.22577443 36.58707655 9.1875 40 C9.17244137 42.32421018 9.15875503 44.64842968 9.14648438 46.97265625 C9.11353659 52.64866851 9.06181718 58.32423172 9 64 C2.73 64 -3.54 64 -10 64 C-10.33 62.02 -10.66 60.04 -11 58 C-11.44730469 58.40992188 -11.89460938 58.81984375 -12.35546875 59.2421875 C-12.96003906 59.78101563 -13.56460938 60.31984375 -14.1875 60.875 C-14.77917969 61.40867187 -15.37085938 61.94234375 -15.98046875 62.4921875 C-22.23360472 67.16087315 -29.52348451 66.80347169 -37 66 C-42.40256244 64.1963495 -46.38492125 60.44774237 -49.15234375 55.50390625 C-51.41160639 48.8302318 -51.25371648 40.81192459 -48.3125 34.375 C-44.04068299 27.45171036 -37.57036339 25.10184536 -30 23 C-23.32943762 21.71775367 -16.79827446 20.87658201 -10 21 C-11.44933518 15.49189362 -11.44933518 15.49189362 -15.1875 11.5 C-25.56922116 9.65436068 -33.51080831 12.93320356 -43 17 C-43 11.72 -43 6.44 -43 1 C-30.20476853 -4.28869567 -12.53261347 -8.37979481 0 0 Z M-28.1875 36.75 C-30.49384689 39.61305131 -31 41.32637024 -31 45 C-29.26655125 48.72843964 -29.26655125 48.72843964 -26 51 C-20.96986386 51.50301361 -18.96514216 51.6076821 -14.625 48.875 C-10.07603468 43.89279988 -9.73619221 39.59519467 -10 33 C-16.2482553 33 -22.67802298 33.72518908 -28.1875 36.75 Z " fill="#1E2126" transform="translate(437,50)"/>
<path d="M0 0 C5.39229959 4.56093862 8.55110811 10.55182558 9.26325989 17.60870361 C9.345293 20.57691976 9.33757875 23.53099024 9.29296875 26.5 C9.28872391 27.57628662 9.28447906 28.65257324 9.28010559 29.76147461 C9.26341025 33.1745787 9.22577443 36.58707655 9.1875 40 C9.17244137 42.32421018 9.15875503 44.64842968 9.14648438 46.97265625 C9.11353659 52.64866851 9.06181718 58.32423172 9 64 C2.73 64 -3.54 64 -10 64 C-10.33 62.02 -10.66 60.04 -11 58 C-11.44730469 58.40992188 -11.89460938 58.81984375 -12.35546875 59.2421875 C-12.96003906 59.78101563 -13.56460938 60.31984375 -14.1875 60.875 C-14.77917969 61.40867187 -15.37085938 61.94234375 -15.98046875 62.4921875 C-22.23360472 67.16087315 -29.52348451 66.80347169 -37 66 C-42.40256244 64.1963495 -46.38492125 60.44774237 -49.15234375 55.50390625 C-51.41160639 48.8302318 -51.25371648 40.81192459 -48.3125 34.375 C-44.04068299 27.45171036 -37.57036339 25.10184536 -30 23 C-23.32943762 21.71775367 -16.79827446 20.87658201 -10 21 C-11.44933518 15.49189362 -11.44933518 15.49189362 -15.1875 11.5 C-25.56922116 9.65436068 -33.51080831 12.93320356 -43 17 C-43 11.72 -43 6.44 -43 1 C-30.20476853 -4.28869567 -12.53261347 -8.37979481 0 0 Z M-28.1875 36.75 C-30.49384689 39.61305131 -31 41.32637024 -31 45 C-29.26655125 48.72843964 -29.26655125 48.72843964 -26 51 C-20.96986386 51.50301361 -18.96514216 51.6076821 -14.625 48.875 C-10.07603468 43.89279988 -9.73619221 39.59519467 -10 33 C-16.2482553 33 -22.67802298 33.72518908 -28.1875 36.75 Z " fill="#1E2126" transform="translate(285,50)"/>
<path d="M0 0 C12.54 0 25.08 0 38 0 C38.17363385 7.26211836 38.3447344 14.52367724 38.49429321 21.78623199 C38.56461809 25.17008425 38.6388969 28.5537312 38.72363281 31.93725586 C39.81792308 76.66222562 39.81792308 76.66222562 27.25 90.375 C17.05592132 99.74356948 4.47325722 101.4398766 -9 101 C-9.99 100.67 -10.98 100.34 -12 100 C-12 93.73 -12 87.46 -12 81 C-9.69 80.896875 -7.38 80.79375 -5 80.6875 C2.52950799 80.22611325 8.21741376 79.66160423 13.875 74.25 C18.16685873 67.68598076 18.3189378 61.31966927 18.4140625 53.69140625 C18.43342865 52.72468491 18.4527948 51.75796356 18.4727478 50.76194763 C18.53219191 47.69555287 18.57878769 44.62911984 18.625 41.5625 C18.66321217 39.47459364 18.70226576 37.3867025 18.7421875 35.29882812 C18.83943712 30.19930109 18.91928486 25.09992239 19 20 C12.73 20 6.46 20 0 20 C0 13.4 0 6.8 0 0 Z " fill="#1E2126" transform="translate(183,46)"/>
<path d="M0 0 C0 6.6 0 13.2 0 20 C4.95 20 9.9 20 15 20 C15 24.95 15 29.9 15 35 C10.05 35 5.1 35 0 35 C0.09731446 39.0206237 0.20027562 43.04050667 0.31738281 47.06054688 C0.35549202 48.42601921 0.39037536 49.79158577 0.421875 51.15722656 C0.46791878 53.12847607 0.52681049 55.09941204 0.5859375 57.0703125 C0.63306885 58.84559326 0.63306885 58.84559326 0.68115234 60.65673828 C1.0070572 64.07399788 1.67755052 66.83634364 3 70 C5.52475462 71.26237731 7.31200466 71.09856404 10.125 71.0625 C11.73375 71.041875 13.3425 71.02125 15 71 C15 76.28 15 81.56 15 87 C7.36325352 88.90918662 -3.46220239 89.77146358 -10.8125 86.3125 C-15.53265735 82.88807212 -18.25705014 79.55734658 -20 74 C-20.26597236 70.99074641 -20.23298232 67.99940126 -20.1953125 64.98046875 C-20.1924826 64.12189774 -20.18965271 63.26332672 -20.18673706 62.3787384 C-20.1755807 59.64818125 -20.15048459 56.9179573 -20.125 54.1875 C-20.11496432 52.33138496 -20.1058395 50.47526476 -20.09765625 48.61914062 C-20.07565626 44.07929954 -20.04115781 39.53970619 -20 35 C-23.63 35 -27.26 35 -31 35 C-31 30.05 -31 25.1 -31 20 C-27.37 20 -23.74 20 -20 20 C-20 15.05 -20 10.1 -20 5 C-17.23058394 4.16169027 -14.45964931 3.32917966 -11.6875 2.5 C-10.50897461 2.14228516 -10.50897461 2.14228516 -9.30664062 1.77734375 C-8.54931641 1.55175781 -7.79199219 1.32617188 -7.01171875 1.09375 C-6.31522217 0.88427734 -5.61872559 0.67480469 -4.90112305 0.45898438 C-3 0 -3 0 0 0 Z " fill="#1E2126" transform="translate(487,28)"/>
<path d="M0 0 C0.88558594 -0.01224609 1.77117188 -0.02449219 2.68359375 -0.03710938 C3.54855469 -0.03904297 4.41351562 -0.04097656 5.3046875 -0.04296875 C6.08569824 -0.04707764 6.86670898 -0.05118652 7.67138672 -0.05541992 C10.125 0.1875 10.125 0.1875 16.125 2.1875 C16.125 8.1275 16.125 14.0675 16.125 20.1875 C13.485 19.1975 10.845 18.2075 8.125 17.1875 C1.97219046 16.36389557 -3.6748948 16.50937681 -8.875 20.1875 C-13.3726509 24.56021615 -14.82374309 29.55395485 -14.91015625 35.6796875 C-14.54739144 41.50162037 -13.4034845 45.51464214 -9.875 50.1875 C-4.76276279 54.05285009 0.97911798 53.84780137 7.125 53.1875 C10.26924752 52.39917281 13.09808133 51.37841882 16.125 50.1875 C16.125 55.7975 16.125 61.4075 16.125 67.1875 C9.72646233 69.60614724 4.44348535 70.66260827 -2.375 70.5625 C-3.16519531 70.57410156 -3.95539062 70.58570312 -4.76953125 70.59765625 C-14.9255106 70.54779056 -21.41907298 67.45121136 -28.70703125 60.45703125 C-36.12841023 52.68798407 -37.30270853 44.41675981 -37.23413086 34.03515625 C-36.97403515 23.36143759 -33.8343117 16.0985034 -26.38671875 8.35546875 C-18.32802184 1.39967282 -10.24752335 0.0073936 0 0 Z " fill="#808080" transform="translate(676.875,45.8125)"/>
<path d="M0 0 C6.1565625 -0.0309375 6.1565625 -0.0309375 12.4375 -0.0625 C14.38160767 -0.07615601 14.38160767 -0.07615601 16.36499023 -0.09008789 C17.88394897 -0.09383423 17.88394897 -0.09383423 19.43359375 -0.09765625 C20.47572021 -0.10289307 21.51784668 -0.10812988 22.59155273 -0.11352539 C25 -0 25 -0 26 1 C26.09959621 2.84159023 26.13080411 4.68696967 26.1328125 6.53125 C26.13474609 8.21154297 26.13474609 8.21154297 26.13671875 9.92578125 C26.13285156 11.10527344 26.12898438 12.28476563 26.125 13.5 C26.13080078 15.26923828 26.13080078 15.26923828 26.13671875 17.07421875 C26.13542969 18.19441406 26.13414063 19.31460937 26.1328125 20.46875 C26.13168457 21.50451172 26.13055664 22.54027344 26.12939453 23.60742188 C26 26 26 26 25 27 C23.14630389 27.08737645 21.28932459 27.10698153 19.43359375 27.09765625 C18.42095459 27.09515869 17.40831543 27.09266113 16.36499023 27.09008789 C15.06891846 27.08098389 13.77284668 27.07187988 12.4375 27.0625 C8.333125 27.041875 4.22875 27.02125 0 27 C0 18.09 0 9.18 0 0 Z " fill="#C92E2F" transform="translate(42,0)"/>
<path d="M0 0 C6.27 0 12.54 0 19 0 C19 6.6 19 13.2 19 20 C12.73 20 6.46 20 0 20 C0 13.4 0 6.8 0 0 Z " fill="#C82B2B" transform="translate(202,21)"/>
</svg>
