<?xml version="1.0" encoding="UTF-8"?>
<svg version="1.1" xmlns="http://www.w3.org/2000/svg" width="381" height="451">
<path d="M0 0 C22.77 0 45.54 0 69 0 C69 29.7 69 59.4 69 90 C90.78 90 112.56 90 135 90 C135 112.44 135 134.88 135 158 C113.22 158 91.44 158 69 158 C68.97080439 182.83007655 68.97080439 182.83007655 68.95117188 207.66015625 C68.94526783 217.80452996 68.93837655 227.94889529 68.92456055 238.09326172 C68.91449761 245.4855624 68.90811939 252.87785619 68.90591151 260.27016354 C68.90462381 264.1732716 68.90166442 268.07636 68.89426994 271.97946167 C68.86850011 286.19923896 68.86391696 300.41291258 69.40454102 314.625 C69.43815955 315.57700287 69.47177809 316.52900574 69.50641537 317.50985718 C70.34748266 336.34364686 78.51143383 352.17801995 92 365 C106.68185921 378.29153164 125.14491208 380.99301505 144.16015625 381.31640625 C145.07502808 381.33505737 145.9898999 381.3537085 146.93249512 381.3729248 C150.30907699 381.4405769 153.68579802 381.50113462 157.0625 381.5625 C168.4165625 381.7790625 168.4165625 381.7790625 180 382 C180 404.44 180 426.88 180 450 C167.25375 450.0928125 167.25375 450.0928125 154.25 450.1875 C150.29435059 450.22846802 150.29435059 450.22846802 146.25878906 450.27026367 C128.87517512 450.37563838 111.99426796 449.31112818 95.25 444.3125 C94.3849585 444.05831299 93.51991699 443.80412598 92.62866211 443.54223633 C59.07066591 433.20598987 31.39353286 407.93893279 14.6875 377.5625 C4.2908165 357.75743073 -0.1720716 335.84313967 -0.12025452 313.6237793 C-0.12069106 312.26806493 -0.12156751 310.91235065 -0.12284368 309.55663681 C-0.12507222 305.84638609 -0.12108988 302.13616441 -0.11606562 298.42591739 C-0.1117377 294.41920395 -0.11320921 290.41249209 -0.1139679 286.40577698 C-0.11449165 279.46887831 -0.11136039 272.53198907 -0.10573006 265.59509277 C-0.0975949 255.56556783 -0.09499777 245.53604744 -0.09374207 235.50651956 C-0.09155472 219.2333477 -0.08490322 202.96018085 -0.07543945 186.68701172 C-0.06625714 170.88134791 -0.05918031 155.07568547 -0.05493164 139.27001953 C-0.05466892 138.29537377 -0.05440619 137.320728 -0.05413551 136.31654751 C-0.05283045 131.4269213 -0.05156675 126.53729507 -0.05032361 121.64766884 C-0.03996086 81.09844143 -0.02152786 40.54922332 0 0 Z " fill="#1E2126" transform="translate(201,1)"/>
<path d="M0 0 C44.55 0 89.1 0 135 0 C135.25077444 41.56138451 135.25077444 41.56138451 135.35546875 59.23632812 C135.42722123 71.34806731 135.49919117 83.45980486 135.57275391 95.5715332 C135.6263739 104.39997715 135.67914049 113.22842575 135.73096704 122.05688041 C135.7583232 126.71220043 135.78604874 131.36751745 135.81480408 136.02282906 C135.88865098 148.01517654 135.95177728 160.00752133 136 172 C136.00368088 172.87228414 136.00736176 173.74456828 136.01115417 174.64328527 C136.03306295 179.94564513 136.0495551 185.24797981 136.05908871 190.55037677 C136.0625843 192.19227168 136.06744336 193.83416444 136.07386875 195.4760505 C136.24993909 242.58506148 130.04655881 285.0934241 96 320 C95.30777344 320.76570313 94.61554688 321.53140625 93.90234375 322.3203125 C73.02617651 344.76520907 41.20675689 357.82934042 11 360 C6.59036936 360.12598504 2.18456859 360.11714465 -2.2265625 360.09765625 C-3.31735107 360.09664917 -4.40813965 360.09564209 -5.53198242 360.09460449 C-9.56299915 360.08941675 -13.59400076 360.07545588 -17.625 360.0625 C-26.65875 360.041875 -35.6925 360.02125 -45 360 C-45 337.56 -45 315.12 -45 292 C-41.52516977 291.30503395 -39.14353443 290.87964606 -35.75488281 290.93408203 C-34.94923889 290.94384064 -34.14359497 290.95359924 -33.3135376 290.96365356 C-32.45210144 290.97822601 -31.59066528 290.99279846 -30.703125 291.0078125 C-28.83724531 291.02535963 -26.9713595 291.04226486 -25.10546875 291.05859375 C-22.19659938 291.08923391 -19.28804783 291.12438518 -16.37939453 291.17138672 C5.85486796 291.51110335 25.17093558 289.62606875 43 275 C43.63550781 274.47921875 44.27101563 273.9584375 44.92578125 273.421875 C59.56003141 260.09966106 64.94591626 241.12515565 66 222 C66.3213874 211.09710199 66.2408933 200.18610404 66.20278788 189.27975798 C66.1901416 185.03975292 66.18909922 180.79974391 66.18673706 176.5597229 C66.18056259 168.55982863 66.16420738 160.55999013 66.14403808 152.56012022 C66.11733391 141.72927461 66.10667379 130.89841335 66.09503365 120.06754303 C66.07632306 103.04498705 66.03645085 86.02254866 66 69 C43.89 69 21.78 69 -1 69 C-1 45.99758467 -0.63870961 22.99354608 0 0 Z " fill="#1E2126" transform="translate(45,91)"/>
<path d="M0 0 C1.94211365 -0.00472824 1.94211365 -0.00472824 3.92346191 -0.009552 C5.34285516 -0.00776217 6.7622481 -0.0057112 8.18164062 -0.00341797 C9.63130713 -0.00409132 11.08097353 -0.0050616 12.53063965 -0.00631714 C15.5704048 -0.00779266 18.6101406 -0.00564422 21.64990234 -0.00097656 C25.55076179 0.00472065 29.45155244 0.00144087 33.35240936 -0.00454903 C36.34633912 -0.00815856 39.3402525 -0.00701424 42.33418274 -0.00442123 C43.77273059 -0.00375305 45.21127992 -0.00457661 46.64982605 -0.00690079 C48.6584775 -0.00943367 50.66713415 -0.00489022 52.67578125 0 C54.39214783 0.00119339 54.39214783 0.00119339 56.14318848 0.00241089 C58.83789062 0.12939453 58.83789062 0.12939453 60.83789062 1.12939453 C60.83789062 23.56939453 60.83789062 46.00939453 60.83789062 69.12939453 C50.82073112 69.71863921 41.01844395 70.27725132 31.02148438 70.22705078 C29.91354019 70.22563583 28.80559601 70.22422089 27.66407776 70.22276306 C24.20115194 70.21726341 20.73829617 70.20473177 17.27539062 70.19189453 C14.89583428 70.1868665 12.5162769 70.18230591 10.13671875 70.17822266 C4.37041969 70.16732722 -1.39583984 70.15069366 -7.16210938 70.12939453 C-8.08877548 61.85572607 -8.29520071 53.68807546 -8.25976562 45.36767578 C-8.25835068 44.0958696 -8.25693573 42.82406342 -8.25547791 41.51371765 C-8.25086442 38.17161064 -8.2419179 34.82957516 -8.23077393 31.48748779 C-8.22044942 28.06148895 -8.2159569 24.63548265 -8.2109375 21.20947266 C-8.1999686 14.51609394 -8.18327614 7.82274835 -8.16210938 1.12939453 C-5.38133748 -0.26099141 -3.11131292 0.0021633 0 0 Z " fill="#C82C2C" transform="translate(119.162109375,-0.12939453125)"/>
</svg>
